<svg width="174" height="59" viewBox="0 0 174 59" fill="none" xmlns="http://www.w3.org/2000/svg">
<path d="M72.904 36.744H64.008L62.536 41H57.832L65.864 18.632H71.08L79.112 41H74.376L72.904 36.744ZM71.688 33.16L68.456 23.816L65.224 33.16H71.688ZM86.5943 17.32V41H82.1143V17.32H86.5943ZM97.9645 22.984C99.2872 22.984 100.45 23.2507 101.453 23.784C102.455 24.296 103.245 24.968 103.821 25.8V23.272H108.333V41.128C108.333 42.7707 108.002 44.232 107.341 45.512C106.679 46.8133 105.687 47.8373 104.365 48.584C103.042 49.352 101.442 49.736 99.5645 49.736C97.0472 49.736 94.9778 49.1493 93.3565 47.976C91.7565 46.8027 90.8498 45.2027 90.6365 43.176H95.0845C95.3192 43.9867 95.8205 44.6267 96.5885 45.096C97.3778 45.5867 98.3272 45.832 99.4365 45.832C100.738 45.832 101.794 45.4373 102.605 44.648C103.415 43.88 103.821 42.7067 103.821 41.128V38.376C103.245 39.208 102.445 39.9013 101.421 40.456C100.418 41.0107 99.2658 41.288 97.9645 41.288C96.4712 41.288 95.1058 40.904 93.8685 40.136C92.6312 39.368 91.6498 38.2907 90.9245 36.904C90.2205 35.496 89.8685 33.8853 89.8685 32.072C89.8685 30.28 90.2205 28.6907 90.9245 27.304C91.6498 25.9173 92.6205 24.8507 93.8365 24.104C95.0738 23.3573 96.4498 22.984 97.9645 22.984ZM103.821 32.136C103.821 31.048 103.607 30.12 103.181 29.352C102.754 28.5627 102.178 27.9653 101.453 27.56C100.727 27.1333 99.9485 26.92 99.1165 26.92C98.2845 26.92 97.5165 27.1227 96.8125 27.528C96.1085 27.9333 95.5325 28.5307 95.0845 29.32C94.6578 30.088 94.4445 31.0053 94.4445 32.072C94.4445 33.1387 94.6578 34.0773 95.0845 34.888C95.5325 35.6773 96.1085 36.2853 96.8125 36.712C97.5378 37.1387 98.3058 37.352 99.1165 37.352C99.9485 37.352 100.727 37.1493 101.453 36.744C102.178 36.3173 102.754 35.72 103.181 34.952C103.607 34.1627 103.821 33.224 103.821 32.136ZM132.772 18.664L124.58 41H119.14L110.948 18.664H115.748L121.892 36.424L128.004 18.664H132.772ZM137.73 21.16C136.941 21.16 136.279 20.9147 135.746 20.424C135.234 19.912 134.978 19.2827 134.978 18.536C134.978 17.7893 135.234 17.1707 135.746 16.68C136.279 16.168 136.941 15.912 137.73 15.912C138.519 15.912 139.17 16.168 139.682 16.68C140.215 17.1707 140.482 17.7893 140.482 18.536C140.482 19.2827 140.215 19.912 139.682 20.424C139.17 20.9147 138.519 21.16 137.73 21.16ZM139.938 23.272V41H135.458V23.272H139.938ZM148.46 37.32H156.364V41H143.372V37.384L151.116 26.952H143.404V23.272H156.268V26.888L148.46 37.32Z" fill="white"/>
<rect x="12" y="10" width="40" height="40" rx="9" fill="white"/>
<line x1="22.4117" y1="37.6691" x2="31.4117" y2="21.6691" stroke="#0B1220" stroke-width="1.35"/>
<line y1="-0.675" x2="18.3576" y2="-0.675" transform="matrix(-0.490261 -0.871576 -0.871576 0.490261 41 38)" stroke="#0B1220" stroke-width="1.35"/>
<mask id="mask0_29_7" style="mask-type:alpha" maskUnits="userSpaceOnUse" x="17" y="16" width="30" height="28">
<circle cx="32" cy="21" r="4.75" fill="black" stroke="white" stroke-width="0.5"/>
<circle cx="22" cy="39" r="4.75" fill="black" stroke="white" stroke-width="0.5"/>
<circle cx="42" cy="39" r="4.75" fill="black" stroke="white" stroke-width="0.5"/>
</mask>
<g mask="url(#mask0_29_7)">
<rect x="15" y="15" width="34" height="31" fill="#0B1220"/>
<rect x="13" y="13" width="41" height="38" fill="url(#paint0_linear_29_7)" fill-opacity="0.8"/>
</g>
<circle cx="42" cy="39" r="4.5" stroke="#0B1220"/>
<circle cx="22" cy="39" r="4.5" stroke="#0B1220"/>
<circle cx="32" cy="21" r="4.5" stroke="#0B1220"/>
<circle cx="42" cy="39" r="5.5" stroke="white"/>
<circle cx="22" cy="39" r="5.5" stroke="white"/>
<circle cx="32" cy="21" r="5.5" stroke="white"/>
<defs>
<linearGradient id="paint0_linear_29_7" x1="25.5" y1="14.5" x2="46.4014" y2="42.7025" gradientUnits="userSpaceOnUse">
<stop stop-color="#0A6BEA"/>
<stop offset="1" stop-color="#E821BD"/>
</linearGradient>
</defs>
</svg>
