<svg width="40" height="40" viewBox="0 0 40 40" fill="none" xmlns="http://www.w3.org/2000/svg">
<rect width="40" height="40" rx="9" fill="white"/>
<line x1="10.4117" y1="27.6691" x2="19.4117" y2="11.6691" stroke="#0B1220" stroke-width="1.35"/>
<line y1="-0.675" x2="18.3576" y2="-0.675" transform="matrix(-0.490261 -0.871576 -0.871576 0.490261 29 28)" stroke="#0B1220" stroke-width="1.35"/>
<mask id="mask0_29_96" style="mask-type:alpha" maskUnits="userSpaceOnUse" x="5" y="6" width="30" height="28">
<circle cx="20" cy="11" r="4.75" fill="black" stroke="white" stroke-width="0.5"/>
<circle cx="10" cy="29" r="4.75" fill="black" stroke="white" stroke-width="0.5"/>
<circle cx="30" cy="29" r="4.75" fill="black" stroke="white" stroke-width="0.5"/>
</mask>
<g mask="url(#mask0_29_96)">
<rect x="3" y="5" width="34" height="31" fill="#0B1220"/>
<rect x="1" y="3" width="41" height="38" fill="url(#paint0_linear_29_96)" fill-opacity="0.8"/>
</g>
<circle cx="30" cy="29" r="4.5" stroke="#0B1220"/>
<circle cx="10" cy="29" r="4.5" stroke="#0B1220"/>
<circle cx="20" cy="11" r="4.5" stroke="#0B1220"/>
<circle cx="30" cy="29" r="5.5" stroke="white"/>
<circle cx="10" cy="29" r="5.5" stroke="white"/>
<circle cx="20" cy="11" r="5.5" stroke="white"/>
<defs>
<linearGradient id="paint0_linear_29_96" x1="13.5" y1="4.5" x2="34.4014" y2="32.7025" gradientUnits="userSpaceOnUse">
<stop stop-color="#0A6BEA"/>
<stop offset="1" stop-color="#E821BD"/>
</linearGradient>
</defs>
</svg>
